# xmcd CD database file
#
# Track frame offsets:
#	182
#	14067
#	26397
#	39887
#	52552
#	64200
#	77085
#	98095
#	111830
#	124600
#	138345
#	149095
#	162422
#	176237
#
# Disc length: 2496 seconds
#
# Revision: 0
# Processed by: cddbd v1.4PL0 Copyright (c) Steve Scherf et al.
# Submitted via: CDex 1.50beta9
#
DISCID=ba09be0e
DTITLE=John Hogan - The Nashville Album
DYEAR=1900
DGENRE=Country
TTITLE0='Til The Mountains Disappear
TTITLE1=Walk Through This World With Me
TTITLE2=Baby I'm Lovin' You Now
TTITLE3=Morning Sun And Memories
TTITLE4=I'll Give My Heart To You
TTITLE5=Stepping Stone
TTITLE6=Back Home Again
TTITLE7=Far Away Heart
TTITLE8=I Can't Help It If I'm Still In Love With You
TTITLE9=You Can't Take It With You When You Go
TTITLE10=Blue Moon Of Kentucky
TTITLE11=Battle Hymn Of Love
TTITLE12=My Guitar
TTITLE13=Fallen Angel
EXTD=
EXTT0=
EXTT1=
EXTT2=
EXTT3=
EXTT4=
EXTT5=
EXTT6=
EXTT7=
EXTT8=
EXTT9=
EXTT10=
EXTT11=
EXTT12=
EXTT13=
PLAYORDER=
